PathFileType  4	(X/Y/Z) /Users/kristensteudel/Documents/NMBL_Research/BertecForceProcessing/anc_files/
DataRate	CameraRate	NumFrames	NumMarkers	Units	OrigDataRate	OrigDataStartFrame	OrigNumFrames
  200.0		  200.0		    9		     46		 mm	  200.0	      418	    477
Frame#	Time	r_knee			r_shank_antsup			r_ankle			r_calc			r_5meta			r_toe			L_knee			L_shank_antsup			L_ankle			L_calc			L_5meta			L_toe			r_sh2			r_sh3			r_sh4			L_sh2			L_sh3			r_thigh1			r_thigh2			r_thigh3			r_thigh4			r_thigh5			L_thigh1			L_thigh2			L_thigh3			L_thigh4			r.ASIS			r.PSIS			L.ASIS			L.PSIS			C7			R_Shoulder			L_Shoulder			Sternum			R_humerus			R_elbow_med			R_elbow_lat			R_forearm			R_wrist_radius			R_wrist_ulna			L_humerus			L_elbow_med			L_elbow_lat			L_forearm			L_wrist_radius			L_wrist_ulna			
		X1	Y1	Z1	X2	Y2	Z2	X3	Y3	Z3	X4	Y4	Z4	X5	Y5	Z5	X6	Y6	Z6	X7	Y7	Z7	X8	Y8	Z8	X9	Y9	Z9	X10	Y10	Z10	X11	Y11	Z11	X12	Y12	Z12	X13	Y13	Z13	X14	Y14	Z14	X15	Y15	Z15	X16	Y16	Z16	X17	Y17	Z17	X18	Y18	Z18	X19	Y19	Z19	X20	Y20	Z20	X21	Y21	Z21	X22	Y22	Z22	X23	Y23	Z23	X24	Y24	Z24	X25	Y25	Z25	X26	Y26	Z26	X27	Y27	Z27	X28	Y28	Z28	X29	Y29	Z29	X30	Y30	Z30	X31	Y31	Z31	X32	Y32	Z32	X33	Y33	Z33	X34	Y34	Z34	X35	Y35	Z35	X36	Y36	Z36	X37	Y37	Z37	X38	Y38	Z38	X39	Y39	Z39	X40	Y40	Z40	X41	Y41	Z41	X42	Y42	Z42	X43	Y43	Z43	X44	Y44	Z44	X45	Y45	Z45	X46	Y46	Z46	

418	2.09000	687.380	569.281	-130.084	574.031	524.969	-123.448	252.310	570.485	-163.756	266.754	645.732	-227.387	118.452	504.755	-154.784	131.226	450.059	-210.687	1055.046	602.167	-454.448	1121.628	510.026	-459.250	1223.239	207.173	-412.526	1184.007	178.474	-348.740	1388.041	171.926	-438.969	1421.177	219.313	-385.829	455.578	529.577	-138.340	572.606	597.112	-105.280	461.853	611.169	-132.142	1046.175	472.395	-457.377	1092.373	371.899	-441.768	846.128	747.310	-114.253	803.062	640.195	-128.734	752.297	625.448	-110.766	739.794	779.903	-88.205	703.021	670.331	-113.708	1002.777	828.652	-458.001	1063.615	705.173	-437.757	901.646	780.269	-499.327	967.099	663.849	-457.909	904.861	1042.804	-164.287	696.714	1110.456	-232.956	877.434	1045.553	-428.930	688.745	1101.108	-332.938	864.598	1592.172	-312.240	965.267	1540.087	-144.058	872.092	1553.578	-500.746	974.688	1451.675	-355.286	917.339	1334.757	-32.319	767.574	1242.427	-26.143	821.221	1272.722	46.597	966.928	1206.011	-44.442	1048.804	1157.537	-101.086	1032.474	1117.133	-79.197	663.962	1456.657	-580.889	523.838	1446.272	-507.838	555.125	1477.156	-590.715	599.093	1314.448	-605.862	674.599	1219.094	-566.718	606.142	1200.925	-588.927
419	2.09500	698.468	565.344	-130.677	583.397	526.353	-124.792	265.068	590.755	-165.675	283.625	665.661	-228.182	128.517	531.415	-157.039	139.081	476.442	-213.315	1042.477	595.741	-455.354	1107.099	499.081	-462.287	1211.300	198.727	-410.402	1174.799	175.166	-343.240	1374.579	156.341	-441.255	1410.527	207.477	-393.499	465.640	537.399	-140.685	585.446	597.841	-105.157	475.994	618.584	-132.031	1029.638	462.834	-458.124	1079.127	362.656	-436.193	853.601	746.141	-116.616	812.432	638.203	-130.448	762.047	622.537	-111.777	747.200	776.700	-88.584	712.044	666.645	-114.043	994.187	819.732	-460.163	1053.544	695.548	-442.283	892.684	775.004	-501.655	955.137	657.415	-457.583	905.772	1043.477	-164.904	697.425	1108.888	-231.691	876.544	1045.722	-429.187	688.045	1100.147	-331.144	864.284	1592.858	-315.409	962.729	1539.581	-143.328	874.320	1549.242	-502.640	975.042	1450.275	-354.376	908.483	1335.899	-30.614	760.254	1247.462	-28.140	810.040	1276.092	45.289	953.333	1193.969	-38.220	1032.706	1136.380	-90.216	1012.518	1098.359	-67.067	667.959	1445.285	-585.848	526.792	1433.570	-515.296	559.244	1463.275	-598.158	607.288	1301.070	-609.580	684.296	1208.292	-567.065	616.688	1188.237	-590.765
420	2.10000	710.076	561.322	-131.528	593.888	527.715	-127.069	280.018	609.956	-167.312	301.834	684.370	-229.419	141.196	556.261	-159.207	149.054	501.281	-215.795	1028.827	588.352	-455.891	1091.619	488.549	-464.130	1197.105	189.726	-406.517	1162.100	171.462	-339.637	1357.723	140.185	-442.628	1396.451	193.248	-399.354	476.911	544.659	-142.840	598.972	598.124	-104.873	491.179	624.971	-131.932	1018.309	453.071	-457.193	1064.858	354.309	-429.880	861.119	745.243	-119.341	822.200	636.150	-132.442	772.553	619.657	-113.761	754.888	773.352	-88.931	721.470	662.581	-114.438	984.700	813.769	-463.951	1043.302	689.259	-445.178	882.420	769.728	-502.338	944.353	653.477	-457.415	906.522	1043.731	-165.594	697.867	1107.610	-230.539	875.798	1045.713	-429.363	687.466	1099.268	-329.065	864.646	1592.218	-317.029	960.112	1539.150	-142.406	876.407	1544.428	-504.784	975.339	1448.792	-353.387	899.025	1336.852	-29.888	749.792	1251.756	-30.506	798.667	1279.220	43.889	938.282	1182.080	-31.368	1014.498	1115.833	-78.378	990.517	1080.639	-54.711	672.359	1433.040	-590.991	530.300	1419.301	-523.249	563.822	1448.321	-606.063	616.189	1286.901	-613.463	694.860	1197.062	-566.915	628.310	1174.651	-592.273
421	2.10500	722.303	557.427	-132.259	605.112	528.329	-128.804	296.740	627.674	-169.100	321.333	701.623	-230.465	156.310	578.860	-160.713	162.694	523.850	-218.204	1014.778	580.776	-455.868	1075.216	479.046	-464.646	1178.959	181.262	-406.443	1146.100	165.779	-337.423	1338.143	125.031	-443.737	1378.886	178.196	-402.755	489.324	551.057	-145.213	613.237	598.164	-105.611	507.043	630.617	-132.054	991.403	451.220	-447.879	1049.348	346.618	-424.032	869.389	743.375	-120.573	832.435	634.144	-134.512	783.555	616.456	-114.890	762.746	769.715	-88.975	731.388	658.269	-114.990	975.622	809.797	-468.698	1033.795	685.357	-447.610	872.232	765.162	-501.231	933.858	648.453	-456.323	907.309	1043.577	-166.476	698.270	1105.816	-228.166	874.510	1045.239	-428.985	686.117	1097.625	-327.334	864.719	1590.136	-318.043	956.927	1538.121	-141.640	877.954	1539.421	-507.431	975.819	1447.300	-352.305	889.494	1337.783	-29.074	739.673	1255.496	-32.900	787.319	1281.901	42.326	922.022	1170.637	-24.000	994.450	1096.278	-65.300	966.798	1064.222	-41.415	677.105	1419.800	-597.339	534.232	1404.194	-531.875	568.580	1431.463	-614.627	626.029	1271.892	-617.333	706.568	1185.626	-566.661	640.874	1160.716	-593.721
422	2.11000	735.082	553.570	-133.796	617.683	528.951	-132.601	315.008	643.731	-171.023	341.227	717.468	-233.140	173.305	599.427	-162.077	177.909	544.875	-220.255	999.417	572.894	-456.101	1058.237	470.816	-463.976	1159.879	171.420	-405.069	1126.532	157.390	-336.155	1316.560	110.734	-444.381	1359.379	162.724	-403.618	502.983	556.843	-147.900	628.520	597.867	-106.250	524.108	636.032	-131.971	975.457	443.966	-442.908	1032.175	338.144	-418.586	877.390	742.465	-122.649	843.584	632.390	-136.723	795.141	613.173	-116.234	770.687	765.812	-89.055	741.905	653.860	-115.500	967.608	806.662	-473.854	1024.009	681.243	-449.570	862.796	760.879	-499.606	923.357	643.631	-455.220	908.024	1042.988	-167.412	698.253	1104.098	-226.182	872.463	1044.592	-428.579	684.958	1096.157	-325.937	864.014	1587.493	-319.692	953.417	1536.921	-140.742	879.627	1533.992	-510.096	976.303	1445.603	-351.190	879.795	1338.610	-28.743	730.037	1258.681	-35.519	775.963	1284.350	40.626	904.358	1159.858	-16.157	971.990	1077.919	-52.292	941.229	1049.037	-27.677	682.922	1406.096	-602.851	538.812	1388.049	-540.790	574.950	1413.539	-623.127	636.917	1256.335	-621.100	718.673	1173.960	-566.228	654.604	1146.374	-594.825
423	2.11500	748.633	550.170	-135.022	631.248	529.231	-135.803	334.602	658.231	-172.917	362.811	731.923	-234.361	192.263	617.700	-162.927	194.953	563.691	-221.926	984.848	565.500	-455.379	1042.004	462.917	-463.325	1137.742	161.253	-404.593	1104.015	147.874	-335.801	1292.764	95.977	-444.117	1337.039	146.330	-403.307	517.790	562.065	-150.496	644.421	597.016	-107.497	541.641	639.473	-132.746	959.264	438.716	-439.240	1012.233	330.714	-415.948	885.731	741.874	-124.293	855.015	630.645	-138.631	807.608	610.026	-116.566	778.967	761.669	-89.501	753.123	649.270	-116.003	960.196	802.881	-479.977	1015.283	677.159	-451.718	852.774	756.785	-496.266	912.431	638.146	-453.247	908.691	1042.045	-168.356	698.474	1102.322	-224.887	871.369	1043.438	-428.508	684.213	1094.257	-324.162	863.140	1584.679	-321.501	949.504	1535.384	-139.736	880.897	1528.527	-513.019	976.698	1443.664	-350.050	869.933	1339.318	-28.479	720.544	1261.333	-38.125	764.542	1286.542	38.874	885.909	1150.060	-7.278	947.841	1061.174	-37.875	913.428	1035.693	-12.671	689.606	1391.234	-608.698	544.037	1370.666	-549.775	581.523	1395.403	-631.946	648.799	1240.417	-624.672	732.254	1162.405	-565.972	669.454	1131.888	-595.743
424	2.12000	762.817	546.661	-136.439	645.802	529.156	-139.271	355.433	671.049	-174.670	384.848	744.794	-235.593	212.661	633.816	-163.577	215.306	581.903	-221.817	970.494	558.927	-454.728	1026.888	455.200	-463.476	1113.450	150.854	-404.412	1078.920	138.590	-335.539	1266.402	79.678	-442.699	1312.210	128.456	-401.513	533.755	566.663	-152.958	661.038	595.557	-109.252	560.263	642.425	-134.488	943.771	433.770	-437.197	991.591	324.504	-414.477	894.574	741.328	-126.058	867.133	629.044	-140.647	820.649	606.800	-118.366	787.718	757.474	-89.535	765.057	644.566	-116.762	952.117	797.699	-486.169	1006.163	671.747	-454.808	843.275	752.888	-492.455	902.516	633.823	-451.316	909.419	1040.877	-169.288	698.681	1099.684	-222.945	870.498	1041.741	-428.365	682.296	1092.882	-322.965	861.874	1580.575	-323.187	945.303	1533.537	-138.688	882.140	1522.861	-515.857	977.061	1441.549	-348.874	860.084	1339.856	-28.572	711.154	1263.660	-40.460	753.250	1288.626	37.198	865.615	1141.358	0.818	921.725	1046.278	-24.177	885.446	1024.663	1.410	697.259	1375.745	-614.647	549.834	1352.611	-559.098	589.072	1375.900	-640.805	662.053	1223.978	-628.428	745.872	1150.822	-565.017	685.654	1117.434	-596.387
425	2.12500	778.020	543.495	-137.725	661.207	528.871	-142.244	377.281	682.311	-176.251	407.673	755.925	-236.928	234.254	647.575	-164.131	233.777	595.821	-223.524	956.851	553.541	-454.372	1012.565	447.363	-463.491	1087.347	140.069	-403.819	1051.768	129.923	-335.010	1237.707	61.823	-440.193	1284.819	108.936	-399.256	550.679	570.685	-155.437	679.078	594.776	-109.749	579.624	645.093	-135.614	928.100	429.947	-438.042	972.825	318.692	-413.221	903.560	741.049	-126.989	880.003	627.925	-142.709	834.478	603.850	-120.053	796.995	753.178	-90.039	777.736	639.870	-117.798	944.484	791.958	-491.935	997.599	666.003	-458.593	834.325	749.503	-488.632	892.420	629.371	-450.079	910.196	1039.523	-170.192	698.779	1096.513	-221.260	869.453	1039.282	-428.363	681.646	1089.721	-321.899	859.901	1576.399	-325.662	940.889	1531.217	-137.664	882.963	1516.910	-519.027	977.444	1439.215	-347.636	850.103	1339.883	-29.112	701.682	1265.300	-42.893	741.629	1290.967	35.841	844.494	1134.187	8.946	894.121	1033.773	-10.423	855.913	1016.105	15.400	705.420	1359.531	-620.320	556.886	1333.377	-567.656	597.878	1355.569	-649.302	676.486	1207.830	-631.260	761.730	1140.026	-564.351	703.325	1103.138	-596.473
426	2.13000	794.201	539.849	-139.076	677.597	528.567	-143.514	399.813	692.043	-177.601	430.840	765.670	-238.050	256.765	659.175	-164.315	254.980	608.027	-224.229	943.731	549.039	-454.807	998.451	439.154	-463.705	1059.457	129.323	-403.048	1022.973	121.338	-335.545	1206.661	43.584	-436.799	1255.843	88.596	-395.844	568.542	574.022	-158.115	697.455	593.270	-111.500	600.301	646.439	-138.520	913.278	424.939	-439.933	955.306	311.950	-416.116	913.058	740.752	-129.674	893.382	627.076	-144.621	849.142	601.148	-121.563	806.332	748.938	-89.974	791.406	634.850	-117.386	937.016	785.568	-497.043	987.976	659.039	-462.730	826.032	746.604	-485.086	882.026	625.126	-449.538	910.751	1037.765	-171.082	699.169	1093.003	-219.392	868.238	1036.552	-428.448	681.033	1086.256	-321.044	857.806	1571.467	-327.835	936.394	1528.568	-136.614	883.882	1510.748	-521.605	977.755	1436.525	-346.288	840.339	1339.399	-30.010	692.122	1266.939	-45.048	730.248	1293.167	34.336	822.699	1128.681	16.964	865.270	1023.937	2.706	825.572	1010.103	29.045	713.678	1342.750	-625.370	564.264	1313.583	-575.908	608.796	1334.213	-657.608	692.476	1192.184	-633.641	778.917	1130.093	-563.233	723.101	1089.917	-596.192
